<svg width="160" height="145" viewBox="0 0 160 145" fill="none" xmlns="http://www.w3.org/2000/svg">
<path d="M125 36.7784V31.8488C125 27.357 121.941 22.0812 118.034 19.8341L86.4662 1.68348C82.5588 -0.561161 76.4412 -0.561161 72.5364 1.68348L40.9687 19.8341C37.064 22.0787 34.0026 27.357 34.0026 31.8488V52.6155C34.0026 57.0157 37.5955 60.5966 42.0139 60.5966C46.4323 60.5966 50.0279 57.0157 50.0279 52.6155V41.3771C50.0279 39.8959 51.2366 38.6921 52.7238 38.6921C54.2112 38.6921 55.4199 39.8959 55.4199 41.3771V58.6191C55.4199 63.0193 59.0154 66.6 63.4337 66.6C67.8523 66.6 71.4478 63.0193 71.4478 58.6191V24.6313C71.4478 23.1502 72.6565 21.9464 74.1437 21.9464C75.6311 21.9464 76.8398 23.1502 76.8398 24.6313V75.3623C76.8398 79.7625 80.4353 83.3432 84.8536 83.3432C89.272 83.3432 92.8677 79.7625 92.8677 75.3623V41.3771C92.8677 39.8959 94.0764 38.6921 95.5636 38.6921C97.0509 38.6921 98.2597 39.8959 98.2597 41.3771V58.6191C98.2597 63.0193 101.855 66.6 106.274 66.6C110.692 66.6 114.288 63.0193 114.288 58.6191V47.3805C114.288 45.8995 115.496 44.6957 116.983 44.6957C118.471 44.6957 119.68 45.8995 119.68 47.3805V68.15C119.68 70.7891 117.666 74.2604 115.374 75.5788L83.8059 93.7293C81.5111 95.0475 77.4864 95.0475 75.1914 93.7293L43.6239 75.5788C41.3291 74.2604 39.3179 70.7891 39.3179 68.15V65.6202C37.3528 65.2182 35.5461 64.3809 34 63.2204V68.15C34 72.6418 37.0589 77.92 40.9662 80.1646L72.5338 98.3152C74.4862 99.4375 76.9931 100 79.4975 100C82.0017 100 84.5113 99.4375 86.4636 98.3152L118.031 80.1646C121.936 77.92 124.997 72.6418 124.997 68.15V47.3805C124.997 42.9804 121.402 39.3996 116.983 39.3996C112.565 39.3996 108.97 42.9804 108.97 47.3805V58.6191C108.97 60.1004 107.761 61.3041 106.274 61.3041C104.786 61.3041 103.578 60.1004 103.578 58.6191V41.3771C103.578 36.9768 99.9819 33.3961 95.5636 33.3961C91.1452 33.3961 87.5497 36.9768 87.5497 41.3771V75.3623C87.5497 76.8436 86.341 78.0473 84.8536 78.0473C83.3664 78.0473 82.1577 76.8436 82.1577 75.3623V24.6313C82.1577 20.2311 78.562 16.6503 74.1437 16.6503C69.7253 16.6503 66.1298 20.2311 66.1298 24.6313V58.6191C66.1298 60.1004 64.9211 61.3041 63.4337 61.3041C61.9466 61.3041 60.7378 60.1004 60.7378 58.6191V41.3771C60.7378 36.9768 57.1423 33.3961 52.7238 33.3961C48.3055 33.3961 44.7099 36.9768 44.7099 41.3771V52.6155C44.7099 54.0968 43.5012 55.3005 42.0139 55.3005C40.5266 55.3005 39.3179 54.0968 39.3179 52.6155V31.8488C39.3179 29.2096 41.3316 25.7384 43.6264 24.42L75.1941 6.26948C77.4889 4.9512 81.5136 4.9512 83.8084 6.26948L115.376 24.42C117.671 25.7384 119.682 29.2096 119.682 31.8488V34.3784C121.647 34.7805 123.454 35.6179 125 36.7784Z" fill="url(#paint0_linear_307_172)"/>
<mask id="mask0_307_172" style="mask-type:luminance" maskUnits="userSpaceOnUse" x="0" y="120" width="160" height="25">
<path d="M160 120H0V144.441H160V120Z" fill="white"/>
</mask>
<g mask="url(#mask0_307_172)">
<path d="M17 144L15.8823 140.588H7.70588L6.47055 144H0L9.41179 120.471H14.1764L23.5295 144H17ZM11.8235 127.765L9.35296 135.794H14.2647L11.8235 127.765Z" fill="#404150"/>
<path d="M34.6473 144H25.4117V120.471H33.3231C36.0885 120.471 38.3528 120.647 40.7349 122.177C44.2353 124.412 45.7349 128.147 45.7349 132.147C45.7349 138.882 41.6768 144 34.6473 144ZM34.0293 125.735H31.4115V138.677H33.9996C38.0289 138.677 39.7355 136.088 39.7355 132.294C39.7355 128.5 38.0883 125.735 34.0293 125.735Z" fill="#404150"/>
<path d="M54.5294 125.735V129.735H61.3825V135.03H54.5294V144H48.7648V120.471H61.6173V125.765H54.5294V125.735Z" fill="#404150"/>
<path d="M64.4412 144V120.471H70.4415V144H64.4412Z" fill="#404150"/>
<path d="M89.0299 144L79.9412 129.706L80.1769 144H74.4123V120.471H79.5589L88.7357 135.294L88.5 120.471H94.2359V144H89.0299Z" fill="#404150"/>
<path d="M98.294 144V120.471H104.294V144H98.294Z" fill="#404150"/>
<path d="M117.177 125.735V143.971H111.176V125.735H106.53V120.471H121.854V125.765H117.206L117.177 125.735Z" fill="#404150"/>
<path d="M136.118 135.412V143.971H130.118V135.412L123.089 120.471H129.618L133.118 129.912L136.647 120.471H143.089L136.118 135.412Z" fill="#404150"/>
<path d="M151.794 144.441C147.088 144.441 143.265 142.029 143.265 137V136.235H149.294C149.294 137.765 149.971 139.412 151.736 139.412C153 139.412 154.059 138.471 154.059 137.147C154.059 135.735 152.647 135.059 151.559 134.618C149.647 133.794 147.647 133.177 146.029 131.824C144.588 130.618 143.676 128.824 143.676 126.941C143.676 122.529 147.911 120 151.942 120C154.264 120 156.764 120.853 158.295 122.676C159.559 124.206 159.765 125.353 159.882 127.294H153.912C153.735 125.941 153.206 125.029 151.764 125.029C150.765 125.029 149.676 125.735 149.676 126.824C149.676 128.059 150.706 128.706 151.676 129.147C155.529 130.912 160.03 132.206 160.03 137.235C160.03 142.265 156.441 144.441 151.824 144.441H151.794Z" fill="#404150"/>
</g>
<defs>
<linearGradient id="paint0_linear_307_172" x1="103.192" y1="-3.93475e-06" x2="24.2172" y2="46.0742" gradientUnits="userSpaceOnUse">
<stop stop-color="#0EA4E2"/>
<stop offset="1" stop-color="#FF303D"/>
</linearGradient>
</defs>
</svg>
