<svg width="29" height="26" viewBox="0 0 29 26" fill="none" xmlns="http://www.w3.org/2000/svg">
<path d="M22.2222 6.53838V5.662C22.2222 4.86346 21.6784 3.92556 20.9838 3.52606L15.3718 0.299286C14.6771 -0.099762 13.5895 -0.099762 12.8954 0.299286L7.28333 3.52606C6.58916 3.92511 6.0449 4.86346 6.0449 5.662V9.35387C6.0449 10.1361 6.68365 10.7727 7.46914 10.7727C8.25463 10.7727 8.89384 10.1361 8.89384 9.35387V7.35594C8.89384 7.0926 9.10873 6.8786 9.37312 6.8786C9.63754 6.8786 9.85243 7.0926 9.85243 7.35594V10.4212C9.85243 11.2034 10.4916 11.84 11.2771 11.84C12.0626 11.84 12.7018 11.2034 12.7018 10.4212V4.37889C12.7018 4.11559 12.9167 3.90159 13.1811 3.90159C13.4455 3.90159 13.6604 4.11559 13.6604 4.37889V13.3977C13.6604 14.18 14.2996 14.8166 15.0851 14.8166C15.8706 14.8166 16.5098 14.18 16.5098 13.3977V7.35594C16.5098 7.0926 16.7247 6.8786 16.9891 6.8786C17.2535 6.8786 17.4684 7.0926 17.4684 7.35594V10.4212C17.4684 11.2034 18.1076 11.84 18.8931 11.84C19.6786 11.84 20.3178 11.2034 20.3178 10.4212V8.42321C20.3178 8.15991 20.5327 7.94591 20.7971 7.94591C21.0615 7.94591 21.2764 8.15991 21.2764 8.42321V12.1156C21.2764 12.5847 20.9184 13.2018 20.5109 13.4362L14.8988 16.663C14.4909 16.8973 13.7754 16.8973 13.3674 16.663L7.75536 13.4362C7.34739 13.2018 6.98985 12.5847 6.98985 12.1156V11.6658C6.64049 11.5943 6.3193 11.4455 6.04445 11.2392V12.1156C6.04445 12.9141 6.58825 13.8524 7.28288 14.2515L12.8949 17.4783C13.242 17.6778 13.6877 17.7778 14.1329 17.7778C14.5781 17.7778 15.0242 17.6778 15.3713 17.4783L20.9833 14.2515C21.6775 13.8524 22.2218 12.9141 22.2218 12.1156V8.42321C22.2218 7.64095 21.5825 7.00438 20.7971 7.00438C20.0116 7.00438 19.3724 7.64095 19.3724 8.42321V10.4212C19.3724 10.6845 19.1575 10.8985 18.8931 10.8985C18.6287 10.8985 18.4138 10.6845 18.4138 10.4212V7.35594C18.4138 6.57365 17.7746 5.93708 16.9891 5.93708C16.2036 5.93708 15.5644 6.57365 15.5644 7.35594V13.3977C15.5644 13.6611 15.3495 13.8751 15.0851 13.8751C14.8207 13.8751 14.6058 13.6611 14.6058 13.3977V4.37889C14.6058 3.59664 13.9666 2.96006 13.1811 2.96006C12.3956 2.96006 11.7564 3.59664 11.7564 4.37889V10.4212C11.7564 10.6845 11.5415 10.8985 11.2771 10.8985C11.0127 10.8985 10.7978 10.6845 10.7978 10.4212V7.35594C10.7978 6.57365 10.1586 5.93708 9.37312 5.93708C8.58764 5.93708 7.94844 6.57365 7.94844 7.35594V9.35387C7.94844 9.61721 7.73355 9.83121 7.46914 9.83121C7.20474 9.83121 6.98985 9.61721 6.98985 9.35387V5.662C6.98985 5.19283 7.34784 4.57571 7.75581 4.34133L13.3678 1.11457C13.7758 0.880213 14.4913 0.880213 14.8993 1.11457L20.5113 4.34133C20.9193 4.57571 21.2768 5.19283 21.2768 5.662V6.11171C21.6262 6.18321 21.9473 6.33206 22.2222 6.53838Z" fill="url(#paint0_linear_307_171)"/>
<mask id="mask0_307_171" style="mask-type:luminance" maskUnits="userSpaceOnUse" x="0" y="21" width="29" height="5">
<path d="M28.4444 21.3333H0V25.6784H28.4444V21.3333Z" fill="white"/>
</mask>
<g mask="url(#mask0_307_171)">
<path d="M3.02222 25.6L2.82353 24.9935H1.36993L1.15032 25.6H0L1.67321 21.417H2.52025L4.18302 25.6H3.02222ZM2.10196 22.7137L1.66275 24.1412H2.53594L2.10196 22.7137Z" fill="#404150"/>
<path d="M6.15953 25.6H4.51764V21.417H5.92411C6.41573 21.417 6.81828 21.4484 7.24177 21.7203C7.86405 22.1177 8.13065 22.7817 8.13065 23.4928C8.13065 24.6902 7.40921 25.6 6.15953 25.6ZM6.04966 22.353H5.58427V24.6536H6.04438C6.7607 24.6536 7.06408 24.1935 7.06408 23.519C7.06408 22.8445 6.77126 22.353 6.04966 22.353Z" fill="#404150"/>
<path d="M9.69411 22.353V23.0641H10.9124V24.0052H9.69411V25.6H8.66929V21.417H10.9542V22.3582H9.69411V22.353Z" fill="#404150"/>
<path d="M11.4562 25.6V21.417H12.5229V25.6H11.4562Z" fill="#404150"/>
<path d="M15.8275 25.6L14.2118 23.0588L14.2537 25.6H13.2289V21.417H14.1438L15.7752 24.0523L15.7333 21.417H16.753V25.6H15.8275Z" fill="#404150"/>
<path d="M17.4745 25.6V21.417H18.5412V25.6H17.4745Z" fill="#404150"/>
<path d="M20.8314 22.353V25.5948H19.7647V22.353H18.9386V21.417H21.6629V22.3582H20.8367L20.8314 22.353Z" fill="#404150"/>
<path d="M24.1988 24.0732V25.5948H23.1321V24.0732L21.8824 21.417H23.0432L23.6655 23.0954L24.2929 21.417H25.438L24.1988 24.0732Z" fill="#404150"/>
<path d="M26.9856 25.6784C26.149 25.6784 25.4693 25.2497 25.4693 24.3556V24.2196H26.5412C26.5412 24.4915 26.6614 24.7843 26.9752 24.7843C27.2001 24.7843 27.3883 24.617 27.3883 24.3817C27.3883 24.1307 27.1372 24.0105 26.9439 23.932C26.6039 23.7856 26.2483 23.6758 25.9608 23.4353C25.7046 23.2209 25.5424 22.902 25.5424 22.5673C25.5424 21.783 26.2954 21.3333 27.0118 21.3333C27.4248 21.3333 27.8692 21.485 28.1413 21.8092C28.366 22.081 28.4026 22.285 28.4235 22.6301H27.3621C27.3307 22.3895 27.2365 22.2274 26.9803 22.2274C26.8026 22.2274 26.6091 22.3529 26.6091 22.5464C26.6091 22.766 26.7921 22.881 26.9647 22.9595C27.6496 23.2732 28.4498 23.5033 28.4498 24.3974C28.4498 25.2915 27.8118 25.6784 26.9909 25.6784H26.9856Z" fill="#404150"/>
</g>
<defs>
<linearGradient id="paint0_linear_307_171" x1="18.3453" y1="-6.99511e-07" x2="4.30528" y2="8.19097" gradientUnits="userSpaceOnUse">
<stop stop-color="#0EA4E2"/>
<stop offset="1" stop-color="#FF303D"/>
</linearGradient>
</defs>
</svg>
