<svg width="248" height="56" viewBox="0 0 248 56" fill="none" xmlns="http://www.w3.org/2000/svg">
<g clip-path="url(#clip0_512_2881)">
<path d="M50.7504 20.5959V17.8353C50.7504 15.3199 49.0444 12.3655 46.8654 11.1071L29.2602 0.942751C27.0811 -0.31425 23.6693 -0.31425 21.4916 0.942751L3.88644 11.1071C1.70878 12.3641 0.00142517 15.3199 0.00142517 17.8353V29.4647C0.00142517 31.9288 2.00522 33.9341 4.46934 33.9341C6.93346 33.9341 8.93868 31.9288 8.93868 29.4647V23.1712C8.93868 22.3417 9.61279 21.6676 10.4422 21.6676C11.2717 21.6676 11.9458 22.3417 11.9458 23.1712V32.8267C11.9458 35.2908 13.951 37.296 16.4151 37.296C18.8793 37.296 20.8845 35.2908 20.8845 32.8267V13.7935C20.8845 12.9641 21.5586 12.29 22.388 12.29C23.2175 12.29 23.8916 12.9641 23.8916 13.7935V42.2029C23.8916 44.667 25.8968 46.6722 28.3609 46.6722C30.825 46.6722 32.8303 44.667 32.8303 42.2029V23.1712C32.8303 22.3417 33.5044 21.6676 34.3338 21.6676C35.1633 21.6676 35.8374 22.3417 35.8374 23.1712V32.8267C35.8374 35.2908 37.8426 37.296 40.3067 37.296C42.7708 37.296 44.7761 35.2908 44.7761 32.8267V26.5331C44.7761 25.7037 45.4502 25.0296 46.2796 25.0296C47.1091 25.0296 47.7832 25.7037 47.7832 26.5331V38.164C47.7832 39.6419 46.6601 41.5858 45.3818 42.3241L27.7766 52.4884C26.4968 53.2266 24.2522 53.2266 22.9723 52.4884L5.3672 42.3241C4.08739 41.5858 2.96578 39.6419 2.96578 38.164V36.7473C1.86983 36.5222 0.862229 36.0533 0 35.4034V38.164C0 40.6794 1.70593 43.6352 3.88502 44.8922L21.4902 55.0565C22.579 55.685 23.9771 56 25.3738 56C26.7704 56 28.17 55.685 29.2588 55.0565L46.8639 44.8922C49.0416 43.6352 50.749 40.6794 50.749 38.164V26.5331C50.749 24.069 48.7437 22.0638 46.2796 22.0638C43.8155 22.0638 41.8103 24.069 41.8103 26.5331V32.8267C41.8103 33.6562 41.1362 34.3303 40.3067 34.3303C39.4773 34.3303 38.8032 33.6562 38.8032 32.8267V23.1712C38.8032 20.707 36.7979 18.7018 34.3338 18.7018C31.8697 18.7018 29.8645 20.707 29.8645 23.1712V42.2029C29.8645 43.0324 29.1904 43.7065 28.3609 43.7065C27.5315 43.7065 26.8574 43.0324 26.8574 42.2029V13.7935C26.8574 11.3294 24.8521 9.32419 22.388 9.32419C19.9239 9.32419 17.9187 11.3294 17.9187 13.7935V32.8267C17.9187 33.6562 17.2446 34.3303 16.4151 34.3303C15.5857 34.3303 14.9116 33.6562 14.9116 32.8267V23.1712C14.9116 20.707 12.9064 18.7018 10.4422 18.7018C7.97811 18.7018 5.9729 20.707 5.9729 23.1712V29.4647C5.9729 30.2942 5.29879 30.9683 4.46934 30.9683C3.63989 30.9683 2.96578 30.2942 2.96578 29.4647V17.8353C2.96578 16.3574 4.08882 14.4135 5.36862 13.6752L22.9738 3.51091C24.2536 2.77267 26.4982 2.77267 27.778 3.51091L45.3832 13.6752C46.663 14.4135 47.7846 16.3574 47.7846 17.8353V19.2519C48.8806 19.4771 49.8881 19.946 50.7504 20.5959Z" fill="url(#paint0_linear_512_2881)"/>
<path d="M50.7504 20.5959V17.8353C50.7504 15.3199 49.0444 12.3655 46.8654 11.1071L29.2602 0.942751C27.0811 -0.31425 23.6693 -0.31425 21.4916 0.942751L3.88644 11.1071C1.70878 12.3641 0.00142517 15.3199 0.00142517 17.8353V29.4647C0.00142517 31.9288 2.00522 33.9341 4.46934 33.9341C6.93346 33.9341 8.93868 31.9288 8.93868 29.4647V23.1712C8.93868 22.3417 9.61279 21.6676 10.4422 21.6676C11.2717 21.6676 11.9458 22.3417 11.9458 23.1712V32.8267C11.9458 35.2908 13.951 37.296 16.4151 37.296C18.8793 37.296 20.8845 35.2908 20.8845 32.8267V13.7935C20.8845 12.9641 21.5586 12.29 22.388 12.29C23.2175 12.29 23.8916 12.9641 23.8916 13.7935V42.2029C23.8916 44.667 25.8968 46.6722 28.3609 46.6722C30.825 46.6722 32.8303 44.667 32.8303 42.2029V23.1712C32.8303 22.3417 33.5044 21.6676 34.3338 21.6676C35.1633 21.6676 35.8374 22.3417 35.8374 23.1712V32.8267C35.8374 35.2908 37.8426 37.296 40.3067 37.296C42.7708 37.296 44.7761 35.2908 44.7761 32.8267V26.5331C44.7761 25.7037 45.4502 25.0296 46.2796 25.0296C47.1091 25.0296 47.7832 25.7037 47.7832 26.5331V38.164C47.7832 39.6419 46.6601 41.5858 45.3818 42.3241L27.7766 52.4884C26.4968 53.2266 24.2522 53.2266 22.9723 52.4884L5.3672 42.3241C4.08739 41.5858 2.96578 39.6419 2.96578 38.164V36.7473C1.86983 36.5222 0.862229 36.0533 0 35.4034V38.164C0 40.6794 1.70593 43.6352 3.88502 44.8922L21.4902 55.0565C22.579 55.685 23.9771 56 25.3738 56C26.7704 56 28.17 55.685 29.2588 55.0565L46.8639 44.8922C49.0416 43.6352 50.749 40.6794 50.749 38.164V26.5331C50.749 24.069 48.7437 22.0638 46.2796 22.0638C43.8155 22.0638 41.8103 24.069 41.8103 26.5331V32.8267C41.8103 33.6562 41.1362 34.3303 40.3067 34.3303C39.4773 34.3303 38.8032 33.6562 38.8032 32.8267V23.1712C38.8032 20.707 36.7979 18.7018 34.3338 18.7018C31.8697 18.7018 29.8645 20.707 29.8645 23.1712V42.2029C29.8645 43.0324 29.1904 43.7065 28.3609 43.7065C27.5315 43.7065 26.8574 43.0324 26.8574 42.2029V13.7935C26.8574 11.3294 24.8521 9.32419 22.388 9.32419C19.9239 9.32419 17.9187 11.3294 17.9187 13.7935V32.8267C17.9187 33.6562 17.2446 34.3303 16.4151 34.3303C15.5857 34.3303 14.9116 33.6562 14.9116 32.8267V23.1712C14.9116 20.707 12.9064 18.7018 10.4422 18.7018C7.97811 18.7018 5.9729 20.707 5.9729 23.1712V29.4647C5.9729 30.2942 5.29879 30.9683 4.46934 30.9683C3.63989 30.9683 2.96578 30.2942 2.96578 29.4647V17.8353C2.96578 16.3574 4.08882 14.4135 5.36862 13.6752L22.9738 3.51091C24.2536 2.77267 26.4982 2.77267 27.778 3.51091L45.3832 13.6752C46.663 14.4135 47.7846 16.3574 47.7846 17.8353V19.2519C48.8806 19.4771 49.8881 19.946 50.7504 20.5959Z" fill="url(#paint1_linear_512_2881)"/>
<mask id="mask0_512_2881" style="mask-type:luminance" maskUnits="userSpaceOnUse" x="64" y="14" width="184" height="28">
<path d="M247.39 14H64.0928V42H247.39V14Z" fill="white"/>
</mask>
<g mask="url(#mask0_512_2881)">
<path d="M83.5681 41.4947L82.2877 37.5861H72.9207L71.5055 41.4947H64.0928L74.875 14.5392H80.3334L91.0483 41.4947H83.5681ZM77.6379 22.8954L74.8076 32.0939H80.4345L77.6379 22.8954Z" fill="white"/>
<path d="M103.785 41.4947H93.2046V14.5392H102.268C105.436 14.5392 108.03 14.7414 110.759 16.4935C114.769 19.0542 116.487 23.3334 116.487 27.9158C116.487 35.6318 111.838 41.4947 103.785 41.4947ZM103.077 20.5705H100.078V35.396H103.043C107.659 35.396 109.614 32.4309 109.614 28.0843C109.614 23.7377 107.727 20.5705 103.077 20.5705Z" fill="white"/>
<path d="M126.562 20.5705V25.1529H134.413V31.2179H126.562V41.4947H119.958V14.5392H134.682V20.6042H126.562V20.5705Z" fill="white"/>
<path d="M137.917 41.4947V14.5392H144.791V41.4947H137.917Z" fill="white"/>
<path d="M166.086 41.4947L155.674 25.1192L155.944 41.4947H149.34V14.5392H155.236L165.749 31.5211L165.479 14.5392H172.05V41.4947H166.086Z" fill="white"/>
<path d="M176.699 41.4947V14.5392H183.573V41.4947H176.699Z" fill="white"/>
<path d="M198.331 20.5705V41.461H191.457V20.5705H186.134V14.5392H203.689V20.6042H198.365L198.331 20.5705Z" fill="white"/>
<path d="M220.031 31.6559V41.461H213.157V31.6559L205.104 14.5392H212.584L216.594 25.3551L220.637 14.5392H228.016L220.031 31.6559Z" fill="white"/>
<path d="M237.989 42C232.598 42 228.218 39.2371 228.218 33.4753V32.5993H235.125C235.125 34.3514 235.9 36.2383 237.922 36.2383C239.371 36.2383 240.584 35.16 240.584 33.6438C240.584 32.0265 238.966 31.2515 237.72 30.7461C235.529 29.8026 233.238 29.0951 231.385 27.5451C229.734 26.1637 228.689 24.1083 228.689 21.9519C228.689 16.8977 233.541 14 238.158 14C240.819 14 243.683 14.9771 245.436 17.0662C246.884 18.8183 247.12 20.1324 247.255 22.3562H240.415C240.213 20.8063 239.606 19.7617 237.955 19.7617C236.81 19.7617 235.563 20.5704 235.563 21.8171C235.563 23.2323 236.742 23.9735 237.854 24.4789C242.268 26.5006 247.424 27.9832 247.424 33.7449C247.424 39.5066 243.313 42 238.023 42H237.989Z" fill="white"/>
</g>
</g>
<defs>
<linearGradient id="paint0_linear_512_2881" x1="7.91683" y1="51.8" x2="39.0711" y2="9.32989" gradientUnits="userSpaceOnUse">
<stop stop-color="#2A295B"/>
<stop offset="0.52" stop-color="#20627C"/>
<stop offset="1" stop-color="#019F98"/>
</linearGradient>
<linearGradient id="paint1_linear_512_2881" x1="38.5884" y1="-2.20346e-06" x2="-5.54785" y2="25.6432" gradientUnits="userSpaceOnUse">
<stop stop-color="#0EA4E2"/>
<stop offset="1" stop-color="#FF303D"/>
</linearGradient>
<clipPath id="clip0_512_2881">
<rect width="248" height="56" fill="white"/>
</clipPath>
</defs>
</svg>
