<svg width="230" height="52" viewBox="0 0 230 52" fill="none" xmlns="http://www.w3.org/2000/svg">
<path d="M47 19.1248V16.5613C47 14.2256 45.4201 11.4822 43.4021 10.3137L27.0979 0.875411C25.0798 -0.291804 21.9202 -0.291804 19.9034 0.875411L3.59924 10.3137C1.5825 11.4809 0.00131985 14.2256 0.00131985 16.5613V27.3601C0.00131985 29.6482 1.85704 31.5102 4.13906 31.5102C6.42108 31.5102 8.27812 29.6482 8.27812 27.3601V21.5161C8.27812 20.7459 8.90242 20.1199 9.67053 20.1199C10.4387 20.1199 11.063 20.7459 11.063 21.5161V30.4819C11.063 32.77 12.92 34.632 15.202 34.632C17.4841 34.632 19.3412 32.77 19.3412 30.4819V12.8082C19.3412 12.0381 19.9654 11.4121 20.7336 11.4121C21.5018 11.4121 22.126 12.0381 22.126 12.8082V39.1884C22.126 41.4765 23.9831 43.3385 26.2651 43.3385C28.5471 43.3385 30.4042 41.4765 30.4042 39.1884V21.5161C30.4042 20.7459 31.0285 20.1199 31.7966 20.1199C32.5648 20.1199 33.1891 20.7459 33.1891 21.5161V30.4819C33.1891 32.77 35.0461 34.632 37.3281 34.632C39.6101 34.632 41.4672 32.77 41.4672 30.4819V24.6379C41.4672 23.8677 42.0915 23.2418 42.8596 23.2418C43.6278 23.2418 44.2521 23.8677 44.2521 24.6379V35.438C44.2521 36.8103 43.212 38.6154 42.0281 39.3009L25.7239 48.7392C24.5387 49.4247 22.46 49.4247 21.2747 48.7392L4.97057 39.3009C3.78534 38.6154 2.74661 36.8103 2.74661 35.438V34.1225C1.73165 33.9135 0.798511 33.4781 0 32.8746V35.438C0 37.7737 1.57986 40.5184 3.59792 41.6856L19.9021 51.1239C20.9104 51.7075 22.2052 52 23.4987 52C24.7921 52 26.0883 51.7075 27.0966 51.1239L43.4007 41.6856C45.4175 40.5184 46.9987 37.7737 46.9987 35.438V24.6379C46.9987 22.3498 45.1416 20.4878 42.8596 20.4878C40.5776 20.4878 38.7206 22.3498 38.7206 24.6379V30.4819C38.7206 31.2522 38.0963 31.8781 37.3281 31.8781C36.56 31.8781 35.9357 31.2522 35.9357 30.4819V21.5161C35.9357 19.2279 34.0786 17.366 31.7966 17.366C29.5146 17.366 27.6575 19.2279 27.6575 21.5161V39.1884C27.6575 39.9587 27.0333 40.5846 26.2651 40.5846C25.497 40.5846 24.8727 39.9587 24.8727 39.1884V12.8082C24.8727 10.5202 23.0156 8.65818 20.7336 8.65818C18.4515 8.65818 16.5945 10.5202 16.5945 12.8082V30.4819C16.5945 31.2522 15.9702 31.8781 15.202 31.8781C14.4339 31.8781 13.8096 31.2522 13.8096 30.4819V21.5161C13.8096 19.2279 11.9526 17.366 9.67053 17.366C7.38854 17.366 5.53151 19.2279 5.53151 21.5161V27.3601C5.53151 28.1303 4.90722 28.7563 4.13906 28.7563C3.37091 28.7563 2.74661 28.1303 2.74661 27.3601V16.5613C2.74661 15.189 3.78666 13.384 4.97188 12.6984L21.2761 3.26013C22.4613 2.57462 24.54 2.57462 25.7252 3.26013L42.0294 12.6984C43.2147 13.384 44.2534 15.189 44.2534 16.5613V17.8768C45.2684 18.0859 46.2014 18.5213 47 19.1248Z" fill="url(#paint0_linear_307_173)"/>
<mask id="mask0_307_173" style="mask-type:luminance" maskUnits="userSpaceOnUse" x="59" y="12" width="171" height="27">
<path d="M230 12.9523H59.5875V38.9841H230V12.9523Z" fill="white"/>
</mask>
<g mask="url(#mask0_307_173)">
<path d="M77.6938 38.5143L76.5034 34.8805H67.7949L66.4792 38.5143H59.5875L69.6118 13.4536H74.6865L84.6482 38.5143H77.6938ZM72.1805 21.2224L69.5492 29.7743H74.7805L72.1805 21.2224Z" fill="#404150"/>
<path d="M96.4896 38.5143H86.653V13.4536H95.0793C98.0246 13.4536 100.436 13.6416 102.973 15.2705C106.702 17.6512 108.299 21.6296 108.299 25.8899C108.299 33.0635 103.977 38.5143 96.4896 38.5143ZM95.8314 19.061H93.0432V32.8443H95.7998C100.091 32.8443 101.909 30.0876 101.909 26.0466C101.909 22.0055 100.155 19.061 95.8314 19.061Z" fill="#404150"/>
<path d="M117.666 19.061V23.3212H124.965V28.9599H117.666V38.5143H111.526V13.4536H125.215V19.0923H117.666V19.061Z" fill="#404150"/>
<path d="M128.222 38.5143V13.4536H134.613V38.5143H128.222Z" fill="#404150"/>
<path d="M154.411 38.5143L144.731 23.2899L144.982 38.5143H138.842V13.4536H144.324L154.098 29.2418L153.847 13.4536H159.956V38.5143H154.411Z" fill="#404150"/>
<path d="M164.278 38.5143V13.4536H170.669V38.5143H164.278Z" fill="#404150"/>
<path d="M184.39 19.061V38.483H177.999V19.061H173.05V13.4536H189.371V19.0923H184.421L184.39 19.061Z" fill="#404150"/>
<path d="M204.564 29.3671V38.483H198.174V29.3671L190.687 13.4536H197.641L201.369 23.5092L205.128 13.4536H211.988L204.564 29.3671Z" fill="#404150"/>
<path d="M221.26 38.9841C216.248 38.9841 212.176 36.4154 212.176 31.0586V30.2442H218.597C218.597 31.8732 219.318 33.6274 221.198 33.6274C222.545 33.6274 223.673 32.6249 223.673 31.2153C223.673 29.7117 222.168 28.9912 221.01 28.5213C218.973 27.6441 216.843 26.9863 215.12 25.5453C213.585 24.261 212.614 22.3501 212.614 20.3453C212.614 15.6463 217.125 12.9523 221.417 12.9523C223.891 12.9523 226.554 13.8607 228.184 15.803C229.53 17.4319 229.749 18.6537 229.875 20.7211H223.515C223.328 19.2802 222.763 18.309 221.228 18.309C220.164 18.309 219.005 19.0609 219.005 20.2199C219.005 21.5356 220.101 22.2247 221.134 22.6946C225.238 24.5742 230.032 25.9526 230.032 31.3093C230.032 36.666 226.21 38.9841 221.292 38.9841H221.26Z" fill="#404150"/>
</g>
<defs>
<linearGradient id="paint0_linear_307_173" x1="35.7368" y1="-2.04607e-06" x2="-5.19276" y2="23.7168" gradientUnits="userSpaceOnUse">
<stop stop-color="#0EA4E2"/>
<stop offset="1" stop-color="#FF303D"/>
</linearGradient>
</defs>
</svg>
